<svg width="149" height="344" viewBox="0 0 149 344" fill="none" xmlns="http://www.w3.org/2000/svg">
<g clip-path="url(#clip0_107_591)">
<g opacity="0.64" filter="url(#filter0_f_107_591)">
<path d="M122.473 335.868C122.473 338.286 111.938 343.999 79.5795 343.999C47.221 343.999 36.6856 338.286 36.6856 335.868C36.6856 333.45 55.8899 332.116 79.5795 332.116C103.269 332.116 122.473 333.45 122.473 335.868Z" fill="black"/>
</g>
<path d="M129.246 262.69C129.246 265.589 123.226 334.618 123.038 335.055C123.038 335.055 122.003 343.999 79.5795 343.999C37.1559 343.999 36.1212 335.055 36.1212 335.055C35.9331 334.618 29.9129 265.425 29.9129 262.69C29.9129 259.563 52.1494 255.81 79.5795 255.81C107.01 255.81 129.246 259.25 129.246 262.69Z" fill="#A58465"/>
<path d="M129.246 262.69C129.246 265.589 123.226 334.618 123.038 335.055C123.038 335.055 122.003 343.999 79.5795 343.999C37.1559 343.999 36.1212 335.055 36.1212 335.055C35.9331 334.618 29.9129 265.425 29.9129 262.69C29.9129 259.563 52.1494 255.81 79.5795 255.81C107.01 255.81 129.246 259.25 129.246 262.69Z" fill="url(#paint0_linear_107_591)" fill-opacity="0.32"/>
<g filter="url(#filter1_i_107_591)">
<ellipse cx="79.5795" cy="262.69" rx="49.6667" ry="6.88" fill="#6D5947"/>
</g>
<g filter="url(#filter2_i_107_591)">
<path fill-rule="evenodd" clip-rule="evenodd" d="M91.9885 268.253C89.0999 268.19 86.6032 268.024 84.5354 267.791C81.713 268.358 77.7543 268.71 73.3712 268.71C69.0864 268.71 65.2071 268.374 62.3986 267.829C61.5887 267.843 60.7612 267.85 59.9198 267.85C50.205 267.85 42.3295 266.888 42.3295 265.7C42.3295 264.513 50.205 263.55 59.9198 263.55C60.7612 263.55 61.5887 263.558 62.3986 263.571C65.2071 263.027 69.0864 262.69 73.3712 262.69C78.5427 262.69 83.1235 263.181 85.944 263.935C87.2253 263.837 88.6179 263.756 90.0968 263.694C91.7073 263.078 94.0476 262.69 96.6524 262.69C99.1945 262.69 101.485 263.059 103.09 263.649C111.055 263.924 116.83 264.739 116.83 265.7C116.83 266.613 110.098 267.647 102.051 268.077C100.561 268.474 98.6872 268.71 96.6524 268.71C94.9393 268.71 93.3405 268.543 91.9885 268.253Z" fill="#51483A"/>
</g>
<path d="M127.892 262.562C127.892 262.562 127.892 262.563 127.891 262.565C127.892 262.563 127.892 262.562 127.892 262.562ZM127.466 262.442C127.619 262.546 127.719 262.629 127.783 262.69C127.719 262.752 127.619 262.835 127.466 262.938C126.96 263.281 126.124 263.666 124.915 264.062C122.517 264.847 118.975 265.575 114.511 266.193C105.602 267.427 93.2518 268.195 79.5795 268.195C65.9072 268.195 53.5566 267.427 44.6486 266.193C40.1843 265.575 36.6418 264.847 34.2439 264.062C33.0356 263.666 32.1994 263.281 31.6927 262.938C31.5401 262.835 31.4404 262.752 31.3761 262.69C31.4404 262.629 31.5401 262.546 31.6927 262.442C32.1994 262.099 33.0356 261.715 34.2439 261.319C36.6418 260.534 40.1843 259.806 44.6486 259.187C53.5566 257.953 65.9072 257.185 79.5795 257.185C93.2518 257.185 105.602 257.953 114.511 259.187C118.975 259.806 122.517 260.534 124.915 261.319C126.124 261.715 126.96 262.099 127.466 262.442ZM31.2668 262.818C31.2667 262.818 31.267 262.818 31.2677 262.816C31.2671 262.818 31.2668 262.818 31.2668 262.818Z" stroke="#A38263" stroke-width="2.75"/>
<path d="M52.8649 20.3271C53.2412 20.9525 56.5021 22.8289 58.1326 23.7671L58.1326 24.7053C56.3767 23.6629 52.7897 21.5155 52.4887 21.2653C52.1124 20.9526 51.3599 20.0143 51.7362 19.3889C52.1124 18.7634 52.4887 19.7016 52.8649 20.3271Z" fill="#286114"/>
<path d="M51.6477 83.1855C52.024 83.3917 56.7897 86.8317 58.4201 87.7699L57.2913 89.1273C55.5354 88.0849 51.5721 84.2674 51.2711 84.0172C50.8949 83.7045 49.6836 82.6441 50.5188 82.56C50.5188 82.56 51.2715 82.9792 51.6477 83.1855Z" fill="#1E3D12"/>
<path d="M3.19823 144.48C4.40227 144.73 5.70665 143.959 6.20833 143.542L6.5846 145.731C5.83207 145.835 3.80026 145.793 1.69318 144.793C-0.940659 143.542 0.188133 141.665 0.564398 141.04L0.564402 141.04C0.940664 140.415 2.82197 140.102 1.69318 141.665C0.564393 143.229 1.69318 144.167 3.19823 144.48Z" fill="#286114"/>
<path d="M5.83208 111.956C7.93915 112.207 9.21844 114.562 9.5947 115.709C10.9743 114.875 13.7336 113.145 13.7336 112.895C13.7336 112.582 9.5947 111.331 8.08965 111.018C6.5846 110.705 3.19824 111.644 5.83208 111.956Z" fill="#1E3D12"/>
<path d="M51.3598 52.8507C53.0626 51.7893 55.7623 51.9483 57.0039 52.538C57.2699 51.1375 57.6461 49.9229 57.4332 49.746C57.1672 49.5249 53.1764 51.0728 51.8461 51.7362C50.5158 52.3996 49.2314 54.1775 51.3598 52.8507Z" fill="#1E3D12"/>
<path d="M50.6073 144.167C50.3063 145.919 47.7227 146.565 46.4684 146.669L47.221 148.858C47.8481 148.858 48.6508 147.607 49.8548 147.607C51.3599 147.607 52.8649 150.735 52.8649 149.797C52.8649 149.046 51.7361 148.441 51.3599 147.295C51.109 146.148 50.9083 142.416 50.6073 144.167Z" fill="#286114"/>
<path d="M133.009 153.549L123.979 149.171C125.107 148.024 127.44 146.106 127.741 147.607C128.042 149.109 131.378 152.194 133.009 153.549Z" fill="#1E3D12"/>
<path d="M48.7262 112.067L65.8905 116.976C64.4886 119.576 63.5011 123.621 62.0433 120.952C60.5854 118.283 52.5578 113.916 48.7262 112.067Z" fill="#1E3D12"/>
<path d="M11.8522 192.34L22.7028 187.94C23.5143 189.71 25.3391 191.999 23.143 191.313C20.947 190.628 14.7008 191.712 11.8522 192.34Z" fill="#1E3D12"/>
<path d="M109.102 187.25L99.9913 193.834C98.6561 192.299 96.1809 190.481 98.5156 190.67C100.85 190.86 106.546 188.469 109.102 187.25Z" fill="#1E3D12"/>
<path d="M149.251 125.085L138.796 125.046C139.084 123.584 139.95 120.953 141.114 122.128C142.278 123.303 147.023 124.589 149.251 125.085Z" fill="#1E3D12"/>
<path d="M110.119 63.1649L99.6649 63.126C99.9526 61.6638 100.819 59.0333 101.983 60.2082C103.146 61.3831 107.892 62.6689 110.119 63.1649Z" fill="#1E3D12"/>
<path d="M76.0733 0.000206029L78.7339 8.40321C76.9601 8.55063 73.6788 8.53588 74.743 7.29755C75.8072 6.05921 76.0733 1.91668 76.0733 0.000206029Z" fill="#1E3D12"/>
<path d="M111.938 74.4288C111.562 74.116 110.433 73.4905 112.691 72.5523C114.497 71.8018 115.952 75.5754 116.453 77.556L115.324 77.8688C114.948 76.7221 114.12 74.4913 113.819 74.7415C113.443 75.0542 112.314 74.7415 111.938 74.4288Z" fill="#286114"/>
<g filter="url(#filter3_ii_107_591)">
<path d="M36.6858 208.589C40.4484 213.28 55.1226 226.727 62.2716 230.48C75.8172 239.862 67.2166 189.513 66.4104 188.574C64.529 186.385 56.2513 176.378 54.7462 172.625C53.2412 168.873 49.8548 157.614 47.9735 149.796C46.0922 141.978 44.9634 134.785 40.4482 124.465C35.9331 114.145 28.7841 110.393 26.5265 110.08C24.2689 109.767 19.0013 108.829 12.6048 112.269C6.20834 115.709 6.58476 123.84 5.83224 128.218C5.07971 132.596 5.83224 143.542 7.33729 149.796C8.84234 156.051 12.2287 169.498 15.9913 177.942C19.754 186.385 32.9231 203.898 36.6858 208.589Z" fill="url(#paint1_linear_107_591)"/>
</g>
<g filter="url(#filter4_f_107_591)">
<path d="M41.3889 203.898C9.78284 179.505 10.5352 131.658 10.159 125.091C9.78098 118.494 17.9664 127.859 18.4059 134.452C20.6454 168.05 33.3542 187.423 44.1377 196.714C49.6294 201.446 56.9818 205.166 59.1937 212.069C60.4206 215.899 57.0242 215.965 41.3889 203.898Z" fill="url(#paint2_linear_107_591)"/>
</g>
<g opacity="0.8" filter="url(#filter5_f_107_591)">
<path d="M51.1717 200.145C19.5657 175.753 20.3181 127.905 19.9418 121.338C19.5638 114.741 27.7492 124.106 28.1887 130.699C30.4283 164.297 43.137 183.67 53.9205 192.961C59.4122 197.693 66.7647 201.413 68.9765 208.317C70.2034 212.146 66.8071 212.212 51.1717 200.145Z" fill="url(#paint3_linear_107_591)"/>
</g>
<g opacity="0.4" filter="url(#filter6_f_107_591)">
<path d="M55.7375 187.299C32.0861 168.998 32.6491 133.099 32.3676 128.172C32.0851 123.23 38.2102 130.242 38.538 135.181C40.0718 158.295 48.1919 172.438 55.7512 180.006C60.8777 185.137 74.9715 196.663 67.8936 195.075C66.1283 194.679 62.4321 192.479 55.7375 187.299Z" fill="url(#paint4_linear_107_591)"/>
</g>
<path d="M5.07958 155.854C5.07958 155.854 10.4621 155.304 12.1474 155.854C13.8328 156.404 11.1347 159.415 9.97096 158.24C8.80725 157.065 7.30685 156.35 5.07958 155.854Z" fill="#1E3D12"/>
<mask id="mask0_107_591" style="mask-type:alpha" maskUnits="userSpaceOnUse" x="5" y="109" width="65" height="123">
<path d="M36.6858 208.589C40.4484 213.28 55.1226 226.727 62.2716 230.48C75.8172 239.862 67.2166 189.513 66.4104 188.574C64.529 186.385 56.2513 176.378 54.7462 172.625C53.2412 168.873 49.8548 157.614 47.9735 149.796C46.0922 141.978 44.9634 134.785 40.4482 124.465C35.9331 114.145 28.7841 110.393 26.5265 110.08C24.2689 109.767 19.0013 108.829 12.6048 112.269C6.20834 115.709 6.58476 123.84 5.83224 128.218C5.07971 132.596 5.83224 143.542 7.33729 149.796C8.84234 156.051 12.2287 169.498 15.9913 177.942C19.754 186.385 32.9231 203.898 36.6858 208.589Z" fill="url(#paint5_linear_107_591)"/>
</mask>
<g mask="url(#mask0_107_591)">
<g opacity="0.32" filter="url(#filter7_f_107_591)">
<path d="M52.5721 221.342C50.5968 215.215 39.2194 151.486 44.8397 150.234C50.4599 148.982 70.9496 210.682 72.9249 216.81C74.9002 222.937 71.9453 228.918 66.3251 230.17C60.7048 231.422 54.5474 227.469 52.5721 221.342Z" fill="black"/>
</g>
</g>
<path d="M103.482 206.138C103.858 205.826 104.611 204.887 105.739 206.764C106.642 208.265 102.102 209.474 99.7192 209.891L99.3429 208.953C100.723 208.64 103.407 207.952 103.106 207.702C102.729 207.389 103.106 206.451 103.482 206.138Z" fill="#286114"/>
<path d="M52.4888 195.844C52.4888 195.844 57.4621 196.635 58.5818 197C59.7016 197.365 57.815 199.719 57.0419 198.938C56.2687 198.158 53.9686 196.173 52.4888 195.844Z" fill="#1E3D12"/>
<path d="M50.9836 240.232C50.9836 240.232 55.8269 244.41 57.4864 245.011C59.1459 245.613 60.1522 241.439 58.3298 241.586C56.5073 241.733 52.9805 241.19 50.9836 240.232Z" fill="#1E3D12"/>
<g filter="url(#filter8_i_107_591)">
<path d="M56.6274 202.021C56.6274 216.532 57.3799 255.185 58.5087 268.32C58.5087 268.32 64.0022 269.195 79.9558 268.945C95.9095 268.695 101.027 268.007 101.027 268.007C100.525 211.091 99.8225 79.1197 101.027 71.6142C102.532 62.2324 103.284 32.2105 101.027 26.8942C98.769 21.5778 88.2336 7.50508 75.4407 7.81781C62.6477 8.13054 60.39 18.1378 58.1325 24.7051C55.8749 31.2724 56.6274 51.5996 56.6274 62.8578V144.167V202.021Z" fill="#51A234"/>
<path d="M56.6274 202.021C56.6274 216.532 57.3799 255.185 58.5087 268.32C58.5087 268.32 64.0022 269.195 79.9558 268.945C95.9095 268.695 101.027 268.007 101.027 268.007C100.525 211.091 99.8225 79.1197 101.027 71.6142C102.532 62.2324 103.284 32.2105 101.027 26.8942C98.769 21.5778 88.2336 7.50508 75.4407 7.81781C62.6477 8.13054 60.39 18.1378 58.1325 24.7051C55.8749 31.2724 56.6274 51.5996 56.6274 62.8578V144.167V202.021Z" fill="url(#paint6_linear_107_591)" fill-opacity="0.24"/>
</g>
<mask id="mask1_107_591" style="mask-type:alpha" maskUnits="userSpaceOnUse" x="56" y="7" width="47" height="262">
<path d="M56.6274 202.022C56.6274 216.533 57.3799 255.186 58.5087 268.32C58.5087 268.32 64.0022 269.196 79.9558 268.946C95.9095 268.695 101.027 268.008 101.027 268.008C100.525 211.091 99.8225 79.1203 101.027 71.6149C102.532 62.233 103.284 32.2112 101.027 26.8948C98.769 21.5784 88.2336 7.5057 75.4407 7.81842C62.6477 8.13115 60.39 18.1384 58.1325 24.7057C55.8749 31.273 56.6274 51.6002 56.6274 62.8584V144.168V202.022Z" fill="#51A234"/>
<path d="M56.6274 202.022C56.6274 216.533 57.3799 255.186 58.5087 268.32C58.5087 268.32 64.0022 269.196 79.9558 268.946C95.9095 268.695 101.027 268.008 101.027 268.008C100.525 211.091 99.8225 79.1203 101.027 71.6149C102.532 62.233 103.284 32.2112 101.027 26.8948C98.769 21.5784 88.2336 7.5057 75.4407 7.81842C62.6477 8.13115 60.39 18.1384 58.1325 24.7057C55.8749 31.273 56.6274 51.6002 56.6274 62.8584V144.168V202.022Z" fill="url(#paint7_linear_107_591)" fill-opacity="0.24"/>
</mask>
<g mask="url(#mask1_107_591)">
<g filter="url(#filter9_f_107_591)">
<rect x="61.7071" y="15.6364" width="10.5354" height="259.564" rx="5.26768" fill="url(#paint8_linear_107_591)"/>
</g>
<g opacity="0.8" filter="url(#filter10_f_107_591)">
<rect x="77.5101" y="14.3854" width="4.51515" height="260.815" rx="2.25758" fill="url(#paint9_linear_107_591)"/>
</g>
<g opacity="0.4" filter="url(#filter11_f_107_591)">
<path d="M89.5505 34.2828C89.5505 32.6204 90.8982 31.2727 92.5606 31.2727V31.2727C94.2231 31.2727 95.5707 32.6204 95.5707 34.2828V284.074C95.5707 285.736 94.2231 287.084 92.5606 287.084V287.084C90.8982 287.084 89.5505 285.736 89.5505 284.074V34.2828Z" fill="url(#paint10_linear_107_591)"/>
</g>
<g opacity="0.24" filter="url(#filter12_f_107_591)">
<path d="M102.155 152.71C102.155 157.946 90.7694 210.778 83.2884 210.778C75.8075 210.778 75.0644 157.946 75.0644 152.71C75.0644 147.474 81.1289 143.229 88.6098 143.229C96.0908 143.229 102.155 147.474 102.155 152.71Z" fill="black"/>
</g>
<g opacity="0.24" filter="url(#filter13_f_107_591)">
<path d="M49.5839 253.034C55.669 254.389 114.122 277.204 112.186 283.21C110.25 289.216 48.6574 276.138 42.5723 274.783C36.4872 273.428 33.1239 267.461 35.0601 261.455C36.9963 255.449 43.4988 251.679 49.5839 253.034Z" fill="black"/>
</g>
</g>
<path d="M64.6544 182.633C64.6544 182.633 65.4084 187.096 66.4836 188.307C67.5589 189.518 70.9413 186.321 69.2747 185.691C67.6081 185.061 65.8073 184.292 64.6544 182.633Z" fill="#1E3D12"/>
<path d="M60.0253 249.423C60.0253 249.423 65.2713 250.221 66.9567 249.671C68.6421 249.122 66.8669 246.076 65.7032 247.251C64.5505 248.415 62.2959 248.917 60.0887 249.409L60.0253 249.423Z" fill="#1E3D12"/>
<path d="M103.311 228.291C103.311 228.291 100.264 232.114 98.3926 233.607C96.5213 235.101 93.9741 231.973 96.5114 231.418L96.5509 231.41C99.071 230.859 101.21 230.392 103.311 228.291Z" fill="#1E3D12"/>
<path d="M102.908 100.936C102.908 100.936 95.0063 97.7346 93.8775 96.558C92.7487 95.3815 97.3392 93.4933 97.6402 94.9944C97.9412 96.4955 101.277 99.5811 102.908 100.936Z" fill="#1E3D12"/>
<g filter="url(#filter14_ii_107_591)">
<path d="M107.423 123.214C102.908 130.219 87.2301 139.476 83.3421 143.229C75.8168 151.026 77.6981 156.676 78.0744 158.24C78.4506 159.803 81.0845 167.309 91.9961 165.745C102.908 164.182 122.097 155.113 131.88 143.229C141.663 131.345 145.802 123.214 142.415 107.891C139.029 92.5671 129.246 83.8108 125.483 80.6835C121.721 77.5562 111.938 75.6799 107.423 80.6835C102.908 85.6871 108.552 94.4435 110.057 101.949C111.562 109.454 113.067 114.458 107.423 123.214Z" fill="url(#paint11_linear_107_591)"/>
</g>
<g opacity="0.8" filter="url(#filter15_f_107_591)">
<path d="M112.939 86.5922C112.393 87.4672 112.173 88.5834 112.503 89.7529C123.414 128.531 97.5774 136.871 91.0555 145.418C84.5336 153.966 75.6286 163.869 91.0555 153.382C126.821 135.436 124.728 110.883 121.838 97.2605C120.571 91.2897 116.172 81.4148 112.939 86.5922Z" fill="url(#paint12_linear_107_591)"/>
</g>
<g opacity="0.4" filter="url(#filter16_f_107_591)">
<path d="M133.482 102.872C133.705 99.0298 127.489 100.833 127.913 104.016C132.11 135.58 115.753 138.478 110.926 144.729C106.099 150.981 99.5083 158.224 110.926 150.554C145.735 133.293 133.203 107.676 133.482 102.872Z" fill="url(#paint13_linear_107_591)"/>
</g>
<path d="M133.006 80.6832C133.006 80.6832 133.621 87.9715 132.96 89.3722C132.298 90.773 128.036 88.413 129.449 87.4458C130.863 86.4786 132.41 82.5344 133.006 80.6832Z" fill="#1E3D12"/>
<path d="M87.1025 7.50507C87.1025 7.50507 87.7172 14.7933 87.0557 16.1941C86.3941 17.5949 82.1315 15.2348 83.5451 14.2676C84.9587 13.3004 86.5057 9.35625 87.1025 7.50507Z" fill="#1E3D12"/>
<path d="M86.255 136.975C86.255 136.975 89.6803 139.826 90.0138 140.609C90.3473 141.391 87.5453 141.688 87.7136 140.86C87.8819 140.033 86.8114 137.925 86.255 136.975Z" fill="#1E3D12"/>
<path d="M104.413 116.45C104.413 116.45 109.795 115.9 111.481 116.45C113.166 117 110.327 120.543 109.163 119.368C107.999 118.193 106.64 116.946 104.413 116.45Z" fill="#1E3D12"/>
<path d="M96.7439 45.658C96.7439 45.658 95.9899 50.1215 94.9146 51.3323C93.8394 52.543 90.457 49.3464 92.1236 48.7162C93.7902 48.0861 95.591 47.3178 96.7439 45.658Z" fill="#1E3D12"/>
<path d="M62.2714 30.7051C62.2714 30.7051 65.8796 33.4856 67.5391 34.0872C69.1986 34.6889 69.9349 31.2866 68.1125 31.4335C66.29 31.5803 64.2683 31.6633 62.2714 30.7051Z" fill="#1E3D12"/>
<path d="M42.707 160.116C42.707 160.116 43.3686 164.59 42.707 165.99C42.0454 167.391 37.7828 165.031 39.1964 164.064C40.61 163.097 42.1102 161.967 42.707 160.116Z" fill="#1E3D12"/>
<path d="M37.0619 113.52C37.0619 113.52 36.1105 117.653 35.671 118.584C35.2315 119.515 32.3994 117.947 33.3386 117.304C34.2778 116.661 36.6654 114.75 37.0619 113.52Z" fill="#1E3D12"/>
<path fill-rule="evenodd" clip-rule="evenodd" d="M126.998 262.685C127.001 262.687 127.003 262.688 127.006 262.69C126.983 262.707 126.958 262.724 126.93 262.743C126.505 263.031 125.752 263.386 124.584 263.768C122.27 264.526 118.798 265.244 114.359 265.859C105.514 267.084 93.2169 267.85 79.5795 267.85C65.9422 267.85 53.6447 267.084 44.8001 265.859C40.3612 265.244 36.8894 264.526 34.5746 263.768C33.4069 263.386 32.6539 263.031 32.2288 262.743C32.2012 262.724 32.176 262.707 32.1531 262.69L32.1626 262.683C31.1363 261.95 32.2958 260.599 34.8905 259.685C31.7017 260.593 29.9129 261.612 29.9129 262.69C29.9129 266.49 52.1494 269.57 79.5795 269.57C107.01 269.57 129.246 266.49 129.246 262.69C129.246 261.613 127.459 260.593 124.272 259.686C126.867 260.601 128.028 261.952 126.998 262.685ZM127.223 262.498C127.223 262.498 127.221 262.501 127.216 262.508C127.22 262.501 127.223 262.498 127.223 262.498ZM31.9362 262.498C31.9362 262.498 31.9392 262.501 31.9431 262.508C31.9378 262.501 31.9362 262.498 31.9362 262.498ZM31.9362 262.883C31.9362 262.883 31.9378 262.879 31.9431 262.872C31.9392 262.879 31.9362 262.883 31.9362 262.883ZM127.216 262.873C127.218 262.875 127.22 262.877 127.221 262.879C127.222 262.881 127.223 262.883 127.223 262.883C127.223 262.883 127.222 262.881 127.22 262.879C127.219 262.877 127.217 262.875 127.216 262.873Z" fill="#E2C2A4"/>
</g>
<defs>
<filter id="filter0_f_107_591" x="20.6856" y="316.116" width="117.788" height="43.8836" filterUnits="userSpaceOnUse" color-interpolation-filters="sRGB">
<feFlood flood-opacity="0" result="BackgroundImageFix"/>
<feBlend mode="normal" in="SourceGraphic" in2="BackgroundImageFix" result="shape"/>
<feGaussianBlur stdDeviation="8" result="effect1_foregroundBlur_107_591"/>
</filter>
<filter id="filter1_i_107_591" x="29.9129" y="255.81" width="99.3333" height="19.26" filterUnits="userSpaceOnUse" color-interpolation-filters="sRGB">
<feFlood flood-opacity="0" result="BackgroundImageFix"/>
<feBlend mode="normal" in="SourceGraphic" in2="BackgroundImageFix" result="shape"/>
<feColorMatrix in="SourceAlpha" type="matrix" values="0 0 0 0 0 0 0 0 0 0 0 0 0 0 0 0 0 0 127 0" result="hardAlpha"/>
<feOffset dy="5.5"/>
<feGaussianBlur stdDeviation="2.75"/>
<feComposite in2="hardAlpha" operator="arithmetic" k2="-1" k3="1"/>
<feColorMatrix type="matrix" values="0 0 0 0 0 0 0 0 0 0 0 0 0 0 0 0 0 0 0.25 0"/>
<feBlend mode="normal" in2="shape" result="effect1_innerShadow_107_591"/>
</filter>
<filter id="filter2_i_107_591" x="42.3295" y="259.94" width="74.5" height="8.76999" filterUnits="userSpaceOnUse" color-interpolation-filters="sRGB">
<feFlood flood-opacity="0" result="BackgroundImageFix"/>
<feBlend mode="normal" in="SourceGraphic" in2="BackgroundImageFix" result="shape"/>
<feColorMatrix in="SourceAlpha" type="matrix" values="0 0 0 0 0 0 0 0 0 0 0 0 0 0 0 0 0 0 127 0" result="hardAlpha"/>
<feOffset dy="-2.75"/>
<feGaussianBlur stdDeviation="2.75"/>
<feComposite in2="hardAlpha" operator="arithmetic" k2="-1" k3="1"/>
<feColorMatrix type="matrix" values="0 0 0 0 0 0 0 0 0 0 0 0 0 0 0 0 0 0 0.32 0"/>
<feBlend mode="normal" in2="shape" result="effect1_innerShadow_107_591"/>
</filter>
<filter id="filter3_ii_107_591" x="-2.46298" y="101.725" width="80.3045" height="141.92" filterUnits="userSpaceOnUse" color-interpolation-filters="sRGB">
<feFlood flood-opacity="0" result="BackgroundImageFix"/>
<feBlend mode="normal" in="SourceGraphic" in2="BackgroundImageFix" result="shape"/>
<feColorMatrix in="SourceAlpha" type="matrix" values="0 0 0 0 0 0 0 0 0 0 0 0 0 0 0 0 0 0 127 0" result="hardAlpha"/>
<feOffset dx="8" dy="-16"/>
<feGaussianBlur stdDeviation="4"/>
<feComposite in2="hardAlpha" operator="arithmetic" k2="-1" k3="1"/>
<feColorMatrix type="matrix" values="0 0 0 0 0 0 0 0 0 0 0 0 0 0 0 0 0 0 0.25 0"/>
<feBlend mode="normal" in2="shape" result="effect1_innerShadow_107_591"/>
<feColorMatrix in="SourceAlpha" type="matrix" values="0 0 0 0 0 0 0 0 0 0 0 0 0 0 0 0 0 0 127 0" result="hardAlpha"/>
<feOffset dx="-8" dy="12"/>
<feGaussianBlur stdDeviation="8"/>
<feComposite in2="hardAlpha" operator="arithmetic" k2="-1" k3="1"/>
<feColorMatrix type="matrix" values="0 0 0 0 0.499306 0 0 0 0 0.833333 0 0 0 0 0.381944 0 0 0 1 0"/>
<feBlend mode="normal" in2="effect1_innerShadow_107_591" result="effect2_innerShadow_107_591"/>
</filter>
<filter id="filter4_f_107_591" x="2.14627" y="114.84" width="65.2762" height="107.511" filterUnits="userSpaceOnUse" color-interpolation-filters="sRGB">
<feFlood flood-opacity="0" result="BackgroundImageFix"/>
<feBlend mode="normal" in="SourceGraphic" in2="BackgroundImageFix" result="shape"/>
<feGaussianBlur stdDeviation="4" result="effect1_foregroundBlur_107_591"/>
</filter>
<filter id="filter5_f_107_591" x="11.9291" y="111.087" width="65.2762" height="107.511" filterUnits="userSpaceOnUse" color-interpolation-filters="sRGB">
<feFlood flood-opacity="0" result="BackgroundImageFix"/>
<feBlend mode="normal" in="SourceGraphic" in2="BackgroundImageFix" result="shape"/>
<feGaussianBlur stdDeviation="4" result="effect1_foregroundBlur_107_591"/>
</filter>
<filter id="filter6_f_107_591" x="24.3581" y="118.485" width="53.4844" height="84.7386" filterUnits="userSpaceOnUse" color-interpolation-filters="sRGB">
<feFlood flood-opacity="0" result="BackgroundImageFix"/>
<feBlend mode="normal" in="SourceGraphic" in2="BackgroundImageFix" result="shape"/>
<feGaussianBlur stdDeviation="4" result="effect1_foregroundBlur_107_591"/>
</filter>
<filter id="filter7_f_107_591" x="27.2951" y="134.215" width="62.243" height="112.186" filterUnits="userSpaceOnUse" color-interpolation-filters="sRGB">
<feFlood flood-opacity="0" result="BackgroundImageFix"/>
<feBlend mode="normal" in="SourceGraphic" in2="BackgroundImageFix" result="shape"/>
<feGaussianBlur stdDeviation="8" result="effect1_foregroundBlur_107_591"/>
</filter>
<filter id="filter8_i_107_591" x="48.507" y="7.81268" width="53.9443" height="273.177" filterUnits="userSpaceOnUse" color-interpolation-filters="sRGB">
<feFlood flood-opacity="0" result="BackgroundImageFix"/>
<feBlend mode="normal" in="SourceGraphic" in2="BackgroundImageFix" result="shape"/>
<feColorMatrix in="SourceAlpha" type="matrix" values="0 0 0 0 0 0 0 0 0 0 0 0 0 0 0 0 0 0 127 0" result="hardAlpha"/>
<feOffset dx="-8" dy="12"/>
<feGaussianBlur stdDeviation="8"/>
<feComposite in2="hardAlpha" operator="arithmetic" k2="-1" k3="1"/>
<feColorMatrix type="matrix" values="0 0 0 0 0.499306 0 0 0 0 0.833333 0 0 0 0 0.381944 0 0 0 1 0"/>
<feBlend mode="normal" in2="shape" result="effect1_innerShadow_107_591"/>
</filter>
<filter id="filter9_f_107_591" x="53.7071" y="7.63635" width="26.5353" height="275.564" filterUnits="userSpaceOnUse" color-interpolation-filters="sRGB">
<feFlood flood-opacity="0" result="BackgroundImageFix"/>
<feBlend mode="normal" in="SourceGraphic" in2="BackgroundImageFix" result="shape"/>
<feGaussianBlur stdDeviation="4" result="effect1_foregroundBlur_107_591"/>
</filter>
<filter id="filter10_f_107_591" x="69.5101" y="6.38544" width="20.5151" height="276.815" filterUnits="userSpaceOnUse" color-interpolation-filters="sRGB">
<feFlood flood-opacity="0" result="BackgroundImageFix"/>
<feBlend mode="normal" in="SourceGraphic" in2="BackgroundImageFix" result="shape"/>
<feGaussianBlur stdDeviation="4" result="effect1_foregroundBlur_107_591"/>
</filter>
<filter id="filter11_f_107_591" x="81.5505" y="23.2727" width="22.0202" height="271.811" filterUnits="userSpaceOnUse" color-interpolation-filters="sRGB">
<feFlood flood-opacity="0" result="BackgroundImageFix"/>
<feBlend mode="normal" in="SourceGraphic" in2="BackgroundImageFix" result="shape"/>
<feGaussianBlur stdDeviation="4" result="effect1_foregroundBlur_107_591"/>
</filter>
<filter id="filter12_f_107_591" x="59.0644" y="127.229" width="59.0909" height="99.5491" filterUnits="userSpaceOnUse" color-interpolation-filters="sRGB">
<feFlood flood-opacity="0" result="BackgroundImageFix"/>
<feBlend mode="normal" in="SourceGraphic" in2="BackgroundImageFix" result="shape"/>
<feGaussianBlur stdDeviation="8" result="effect1_foregroundBlur_107_591"/>
</filter>
<filter id="filter13_f_107_591" x="18.5127" y="236.758" width="109.721" height="64.0207" filterUnits="userSpaceOnUse" color-interpolation-filters="sRGB">
<feFlood flood-opacity="0" result="BackgroundImageFix"/>
<feBlend mode="normal" in="SourceGraphic" in2="BackgroundImageFix" result="shape"/>
<feGaussianBlur stdDeviation="8" result="effect1_foregroundBlur_107_591"/>
</filter>
<filter id="filter14_ii_107_591" x="69.5913" y="69.5948" width="81.9893" height="106.363" filterUnits="userSpaceOnUse" color-interpolation-filters="sRGB">
<feFlood flood-opacity="0" result="BackgroundImageFix"/>
<feBlend mode="normal" in="SourceGraphic" in2="BackgroundImageFix" result="shape"/>
<feColorMatrix in="SourceAlpha" type="matrix" values="0 0 0 0 0 0 0 0 0 0 0 0 0 0 0 0 0 0 127 0" result="hardAlpha"/>
<feOffset dx="8" dy="-8"/>
<feGaussianBlur stdDeviation="4"/>
<feComposite in2="hardAlpha" operator="arithmetic" k2="-1" k3="1"/>
<feColorMatrix type="matrix" values="0 0 0 0 0 0 0 0 0 0 0 0 0 0 0 0 0 0 0.16 0"/>
<feBlend mode="normal" in2="shape" result="effect1_innerShadow_107_591"/>
<feColorMatrix in="SourceAlpha" type="matrix" values="0 0 0 0 0 0 0 0 0 0 0 0 0 0 0 0 0 0 127 0" result="hardAlpha"/>
<feOffset dx="-8" dy="10"/>
<feGaussianBlur stdDeviation="8"/>
<feComposite in2="hardAlpha" operator="arithmetic" k2="-1" k3="1"/>
<feColorMatrix type="matrix" values="0 0 0 0 0.499306 0 0 0 0 0.833333 0 0 0 0 0.381944 0 0 0 1 0"/>
<feBlend mode="normal" in2="effect1_innerShadow_107_591" result="effect2_innerShadow_107_591"/>
</filter>
<filter id="filter15_f_107_591" x="74.5097" y="77.1399" width="56.7692" height="88.7648" filterUnits="userSpaceOnUse" color-interpolation-filters="sRGB">
<feFlood flood-opacity="0" result="BackgroundImageFix"/>
<feBlend mode="normal" in="SourceGraphic" in2="BackgroundImageFix" result="shape"/>
<feGaussianBlur stdDeviation="4" result="effect1_foregroundBlur_107_591"/>
</filter>
<filter id="filter16_f_107_591" x="96.601" y="92.6982" width="46.8535" height="69.1636" filterUnits="userSpaceOnUse" color-interpolation-filters="sRGB">
<feFlood flood-opacity="0" result="BackgroundImageFix"/>
<feBlend mode="normal" in="SourceGraphic" in2="BackgroundImageFix" result="shape"/>
<feGaussianBlur stdDeviation="4" result="effect1_foregroundBlur_107_591"/>
</filter>
<linearGradient id="paint0_linear_107_591" x1="29.9129" y1="289.585" x2="125.625" y2="289.585" gradientUnits="userSpaceOnUse">
<stop/>
<stop offset="1" stop-opacity="0"/>
</linearGradient>
<linearGradient id="paint1_linear_107_591" x1="48.3498" y1="112.894" x2="24.8969" y2="213.717" gradientUnits="userSpaceOnUse">
<stop stop-color="#51A234"/>
<stop offset="1" stop-color="#43852C"/>
</linearGradient>
<linearGradient id="paint2_linear_107_591" x1="34.7847" y1="121.818" x2="34.7847" y2="214.352" gradientUnits="userSpaceOnUse">
<stop stop-color="#3E782A"/>
<stop offset="1" stop-color="#2F5B20"/>
</linearGradient>
<linearGradient id="paint3_linear_107_591" x1="44.5676" y1="118.066" x2="44.5676" y2="210.599" gradientUnits="userSpaceOnUse">
<stop stop-color="#3E782A"/>
<stop offset="1" stop-color="#2F5B20"/>
</linearGradient>
<linearGradient id="paint4_linear_107_591" x1="50.7955" y1="125.716" x2="50.7955" y2="195.142" gradientUnits="userSpaceOnUse">
<stop stop-color="#3E782A"/>
<stop offset="1" stop-color="#2F5B20"/>
</linearGradient>
<linearGradient id="paint5_linear_107_591" x1="48.3498" y1="112.894" x2="24.8969" y2="213.717" gradientUnits="userSpaceOnUse">
<stop stop-color="#51A234"/>
<stop offset="1" stop-color="#43852C"/>
</linearGradient>
<linearGradient id="paint6_linear_107_591" x1="56.507" y1="135.637" x2="111.84" y2="126.335" gradientUnits="userSpaceOnUse">
<stop/>
<stop offset="1" stop-opacity="0"/>
</linearGradient>
<linearGradient id="paint7_linear_107_591" x1="56.507" y1="135.638" x2="111.84" y2="126.336" gradientUnits="userSpaceOnUse">
<stop/>
<stop offset="1" stop-opacity="0"/>
</linearGradient>
<linearGradient id="paint8_linear_107_591" x1="66.9748" y1="15.6364" x2="66.9748" y2="275.2" gradientUnits="userSpaceOnUse">
<stop stop-color="#3E782A"/>
<stop offset="1" stop-color="#2F5B20"/>
</linearGradient>
<linearGradient id="paint9_linear_107_591" x1="79.7677" y1="14.3854" x2="79.7677" y2="275.2" gradientUnits="userSpaceOnUse">
<stop stop-color="#3E782A"/>
<stop offset="1" stop-color="#2F5B20"/>
</linearGradient>
<linearGradient id="paint10_linear_107_591" x1="92.5606" y1="31.2727" x2="92.5606" y2="287.084" gradientUnits="userSpaceOnUse">
<stop stop-color="#3E782A"/>
<stop offset="1" stop-color="#2F5B20"/>
</linearGradient>
<linearGradient id="paint11_linear_107_591" x1="153.327" y1="89.7526" x2="99.054" y2="167.251" gradientUnits="userSpaceOnUse">
<stop stop-color="#51A234"/>
<stop offset="1" stop-color="#43852C"/>
</linearGradient>
<linearGradient id="paint12_linear_107_591" x1="112.71" y1="71.3021" x2="112.71" y2="163.835" gradientUnits="userSpaceOnUse">
<stop stop-color="#3E782A"/>
<stop offset="1" stop-color="#2F5B20"/>
</linearGradient>
<linearGradient id="paint13_linear_107_591" x1="126.952" y1="90.5212" x2="126.952" y2="158.199" gradientUnits="userSpaceOnUse">
<stop stop-color="#3E782A"/>
<stop offset="1" stop-color="#2F5B20"/>
</linearGradient>
<clipPath id="clip0_107_591">
<rect width="149" height="344" fill="white"/>
</clipPath>
</defs>
</svg>
