<svg width="124" height="120" viewBox="0 0 124 120" fill="none" xmlns="http://www.w3.org/2000/svg">
<path d="M122.79 48.248H117.796V47.999H61.998V71.9986H97.0362C91.9245 85.9693 78.1888 95.9981 61.998 95.9981C41.455 95.9981 24.7992 79.8794 24.7992 59.9988C24.7992 40.1182 41.455 23.9995 61.998 23.9995C71.4806 23.9995 80.1077 27.4614 86.6764 33.1163L104.212 16.1457C93.1396 6.15888 78.3283 0 61.998 0C27.7596 0 0 26.8645 0 59.9988C0 93.1331 27.7596 119.998 61.998 119.998C96.2365 119.998 123.996 93.1331 123.996 59.9988C123.996 55.9759 123.568 52.049 122.79 48.248Z" fill="#FFC107"/>
<path d="M7.14447 32.0726L27.5141 46.5294C33.0258 33.3236 46.3741 23.9997 61.9946 23.9997C71.4773 23.9997 80.1044 27.4617 86.6731 33.1166L104.209 16.1458C93.1365 6.15893 78.325 0 61.9946 0C38.1809 0 17.5292 13.0108 7.14447 32.0726Z" fill="#FF3D00"/>
<path d="M61.9995 120C78.0137 120 92.5648 114.069 103.566 104.424L84.3779 88.7104C77.9441 93.4455 70.0824 96.0065 61.9995 96.0003C45.8737 96.0003 32.1813 86.0494 27.023 72.1626L6.8053 87.2374C17.0661 106.668 37.9038 120 61.9995 120Z" fill="#4CAF50"/>
<path d="M122.792 48.2482H117.798V47.9992H61.998V71.9993H97.0371C94.5919 78.6486 90.1873 84.4589 84.3675 88.7124L84.3768 88.7064L103.566 104.42C102.208 105.614 123.998 89.9994 123.998 59.9992C123.998 55.9762 123.57 52.0492 122.792 48.2482Z" fill="#1976D2"/>
</svg>
